<?xml version="1.0" encoding="utf-8"?>
<!-- Generator: Adobe Illustrator 21.0.0, SVG Export Plug-In . SVG Version: 6.00 Build 0)  -->
<svg version="1.1" id="Layer_1" xmlns="http://www.w3.org/2000/svg" xmlns:xlink="http://www.w3.org/1999/xlink" x="0px" y="0px"
	 viewBox="0 0 612 792" style="enable-background:new 0 0 612 792;" xml:space="preserve">
<style type="text/css">
	.st0{stroke:#000000;stroke-miterlimit:10;}
</style>
<path class="st0" d="M306,352.5c0,0,2.3-8,12.8-9.7h19.7c0,0,9.3,1.2,16.5,16.2c0,0,7,13.7,12.2,33.2s7.2,27.2,11.8,32.8
	s8.5,5.3,12.5-1.5c0,0,3.8,6.2,2.5,9s-4.5,9.5-10.7,9.5H361c0,0-15.3-1.5-25-39.5S318.8,355.2,306,352.5z"/>
<path class="st0" d="M358.9,352.5c0,0,2.3-8,12.8-9.7h19.7c0,0,9.3,1.2,16.5,16.2c0,0,7,13.7,12.2,33.2s7.3,27.1,11.8,32.8
	c11.3,14.4,17.3-16.3,20.7-28.8c0-0.2,0.1-0.3,0.3-0.4c0.9-0.6,4.6-1.4,4,1.6c-6.8,37.8-14.5,44.6-20.7,44.6h-22.3
	c0,0-15.3-1.5-25-39.5S371.8,355.2,358.9,352.5z"/>
<path class="st0" d="M415.1,360.1c1-3.1,4.3-11.5,12.4-16.8c0.5-0.3,1.1-0.5,1.6-0.5l26.1,0c0,0,11.3,0.6,18.3,19.5
	s11,20.1,19.9,20.8c0,0-0.9,7-10,10.3h-24.3c0,0-14.3-2.8-19.3-22.1c-4.9-18.9-15.8-16.3-20.4-4.1c-0.2,0.6-1.1,0.9-1.5,0.4
	c-0.7-0.7-1.6-2.1-2.8-5.1C414.9,361.6,414.9,360.8,415.1,360.1z"/>
</svg>
